<?xml version="1.0" encoding="UTF-8"?>
<!DOCTYPE svg PUBLIC "-//W3C//DTD SVG 1.1//EN" "http://www.w3.org/Graphics/SVG/1.1/DTD/svg11.dtd">
<svg xmlns="http://www.w3.org/2000/svg" version="1.1" width="24px" height="24px" style="shape-rendering:geometricPrecision; text-rendering:geometricPrecision; image-rendering:optimizeQuality; fill-rule:evenodd; clip-rule:evenodd" xmlns:xlink="http://www.w3.org/1999/xlink">
<g><path style="opacity:0.693" fill="#dda347" d="M 14.5,10.5 C 14.5,10.8333 14.5,11.1667 14.5,11.5C 13.596,12.209 13.2627,13.209 13.5,14.5C 12.1667,14.5 10.8333,14.5 9.5,14.5C 9.30678,10.551 8.80678,10.551 8,14.5C 7.25883,13.3595 6.42549,13.3595 5.5,14.5C 4.45928,12.0087 3.62595,12.0087 3,14.5C 2.01381,13.8288 0.847141,13.8288 -0.5,14.5C -0.5,13.1667 -0.5,11.8333 -0.5,10.5C 0.458367,10.0472 1.2917,9.38053 2,8.5C 3.37985,11.0578 4.87985,11.0578 6.5,8.5C 8.16667,11.1667 9.83333,11.1667 11.5,8.5C 12.2652,9.61191 13.2652,10.2786 14.5,10.5 Z"/></g>
<g><path style="opacity:0.614" fill="#dc9f48" d="M 23.5,10.5 C 23.5,11.8333 23.5,13.1667 23.5,14.5C 22.1529,13.8288 20.9862,13.8288 20,14.5C 19.3741,12.0087 18.5407,12.0087 17.5,14.5C 16.5745,13.3595 15.7412,13.3595 15,14.5C 14.5172,13.552 14.3505,12.552 14.5,11.5C 14.5,11.1667 14.5,10.8333 14.5,10.5C 15.1515,9.90935 15.8182,9.24269 16.5,8.5C 18.1201,11.0578 19.6201,11.0578 21,8.5C 21.7083,9.38053 22.5416,10.0472 23.5,10.5 Z"/></g>
</svg>
